#!OML:ASF C:\ViconDB\ViconDB\414\Spring2016\042216\male.ASF
:FULLY-SPECIFIED
:DEGREES
982
root 38.0911 17.3936 5.49774 -539.911 20.2699 -180.857
lowerback -0.865131 -2.11505 4.37371
upperback -0.061668 -2.8585 -0.571215
thorax 0.178316 -1.42606 -3.05856
lowerneck -0.0567593 5.77351 -3.18028
upperneck 3.98134 8.1623 -4.85732
head 1.32604 4.054 -0.876077
rclavicle 6.76978e-014 -1.2921e-014
rhumerus -32.4479 -4.79444 -90.3148
rradius 26.0589
rwrist 31.1144
rhand 10.43 -21.6298
rfingers 7.12502
rthumb 35.5341 -48.0595
lclavicle 6.76978e-014 -1.2921e-014
lhumerus -37.1956 15.9104 86.505
lradius 32.1499
lwrist -9.23942
lhand -16.9727 16.5228
lfingers 7.12502
lthumb 9.26166 46.2993
rfemur -5.88833 15.6015 21.507
rtibia 26.2066
rfoot -26.0021 -29.5883
rtoes -8.55639
lfemur -14.6118 -4.16367 -15.2012
ltibia 39.6861
lfoot -23.4874 26.754
ltoes -12.7844
983
root 38.0745 17.3555 5.48213 -539.964 20.3084 -180.893
lowerback -0.984085 -2.0964 4.35169
upperback -0.0992248 -2.83811 -0.595928
thorax 0.20792 -1.41586 -3.07568
lowerneck -0.12067 5.75054 -3.23216
upperneck 4.18528 8.14614 -4.76137
head 1.3946 4.04083 -0.833078
rclavicle 2.20915e-015 5.96354e-015
rhumerus -32.4196 -4.70164 -90.3065
rradius 26.1601
rwrist 31.029
rhand 10.4936 -21.5743
rfingers 7.12502
rthumb 35.5944 -47.9894
lclavicle 2.20915e-015 5.96354e-015
lhumerus -37.3781 16.0958 86.3543
lradius 32.0915
lwrist -9.37111
lhand -17.0098 16.4995
lfingers 7.12502
lthumb 9.22593 46.2776
rfemur -5.82923 16.151 21.488
rtibia 26.3083
rfoot -26.2529 -29.985
rtoes -8.46601
lfemur -13.7585 -3.74513 -15.3702
ltibia 38.7914
lfoot -23.0244 27.2086
ltoes -16.8245
984
root 38.0641 17.3787 5.45558 -540.013 20.3793 -180.966
lowerback -1.17299 -2.07728 4.25245
upperback -0.141607 -2.81911 -0.620221
thorax 0.275394 -1.40557 -3.05193
lowerneck -0.174143 5.72655 -3.25179
upperneck 4.39739 8.13372 -4.72974
head 1.46886 4.03001 -0.81514
rclavicle -1.18679e-013 -1.53064e-014
rhumerus -32.3963 -4.37632 -90.424
rradius 26.3154
rwrist 30.4447
rhand 10.3589 -21.7164
rfingers 7.12502
rthumb 35.4667 -48.1622
lclavicle -1.18679e-013 -1.53064e-014
lhumerus -37.6079 16.2751 86.2176
lradius 32.06
lwrist -9.5837
lhand -17.0062 16.3947
lfingers 7.12502
lthumb 9.22933 46.1727
rfemur -5.64597 16.3818 21.3874
rtibia 26.2053
rfoot -26.3426 -30.1021
rtoes -8.418
lfemur -13.1941 -4.63544 -15.2942
ltibia 37.8734
lfoot -24.5132 26.083
ltoes -15.2817
985
root 38.049 17.371 5.43112 -540.114 20.3953 -181.062
lowerback -1.29591 -2.08396 4.08839
upperback -0.177631 -2.83042 -0.594476
thorax 0.315556 -1.41091 -2.938
lowerneck -0.236881 5.72698 -3.33661
upperneck 4.61575 8.16009 -4.71907
head 1.54566 4.03815 -0.792214
rclavicle -4.43507e-014 -6.16232e-015
rhumerus -32.4543 -4.11097 -90.3161
rradius 26.5414
rwrist 30.4477
rhand 10.5903 -21.158
rfingers 7.12502
rthumb 35.686 -47.5511
lclavicle -4.43507e-014 -6.16232e-015
lhumerus -37.8314 16.5099 86.124
lradius 32.0447
lwrist -9.78741
lhand -16.7112 16.4236
lfingers 7.12502
lthumb 9.51399 46.1889
rfemur -5.57207 16.0776 21.1973
rtibia 26.2979
rfoot -26.3308 -29.8171
rtoes -8.57899
lfemur -12.527 -4.97007 -15.4789
ltibia 36.85
lfoot -24.6658 26.1592
ltoes -16.1138
986
root 38.037 17.3782 5.40427 -540.197 20.4343 -181.211
lowerback -1.52432 -2.05205 3.92729
upperback -0.194186 -2.79452 -0.644502
thorax 0.434623 -1.39081 -2.90815
lowerneck -0.287573 5.67814 -3.29467
upperneck 4.80502 8.11656 -4.75598
head 1.6184 4.01265 -0.806194
rclavicle 2.00151e-014 4.17448e-015
rhumerus -32.452 -3.72733 -90.4506
rradius 26.7902
rwrist 29.6972
rhand 10.3282 -21.5519
rfingers 7.12502
rthumb 35.4376 -48.0047
lclavicle 2.00151e-014 4.17448e-015
lhumerus -37.998 16.5295 86.0664
lradius 31.9904
lwrist -10.0801
lhand -16.9732 16.2625
lfingers 7.12502
lthumb 9.26119 46.0391
rfemur -5.49726 16.0397 20.9808
rtibia 26.4025
rfoot -26.4174 -29.7205
rtoes -8.67282
lfemur -11.9103 -5.53829 -15.6959
ltibia 35.8489
lfoot -24.9229 26.7832
ltoes -15.2807
987
root 38.0193 17.3806 5.37737 -540.307 20.4684 -181.343
lowerback -1.67059 -2.04062 3.79826
upperback -0.216242 -2.78228 -0.658846
thorax 0.500306 -1.38371 -2.85611
lowerneck -0.319262 5.66483 -3.38413
upperneck 4.95632 8.11385 -4.70466
head 1.66621 4.00795 -0.772517
rclavicle -4.36208e-014 -3.97569e-016
rhumerus -32.3671 -3.8861 -90.2503
rradius 26.8892
rwrist 29.8138
rhand 10.6018 -21.3249
rfingers 7.12502
rthumb 35.6969 -47.7153
lclavicle -4.36208e-014 -3.97569e-016
lhumerus -38.1482 16.4472 86.1923
lradius 31.9845
lwrist -10.0674
lhand -17.1863 16.5245
lfingers 7.12502
lthumb 9.05561 46.3101
rfemur -5.48042 16.3448 20.8212
rtibia 26.7468
rfoot -26.8231 -29.8593
rtoes -8.52943
lfemur -11.2973 -5.91277 -15.9637
ltibia 34.8783
lfoot -24.8254 27.5105
ltoes -14.8045
988
root 37.999 17.3375 5.3588 -540.355 20.4907 -181.333
lowerback -1.82856 -2.02078 3.86757
upperback -0.202704 -2.76327 -0.715449
thorax 0.598092 -1.37178 -2.9597
lowerneck -0.380019 5.64213 -3.29562
upperneck 5.04929 8.09182 -4.71658
head 1.71088 3.99467 -0.787335
rclavicle 2.01704e-014 3.57812e-015
rhumerus -32.2588 -3.93244 -90.2718
rradius 27.0114
rwrist 29.7206
rhand 10.5156 -21.191
rfingers 7.12502
rthumb 35.6152 -47.6011
lclavicle 2.01704e-014 3.57812e-015
lhumerus -38.1972 16.5028 86.0527
lradius 31.8637
lwrist -10.2154
lhand -16.7569 16.6293
lfingers 7.12502
lthumb 9.4699 46.3965
rfemur -5.57316 16.6227 20.8182
rtibia 27.1553
rfoot -27.0864 -30.0851
rtoes -8.7485
lfemur -10.5057 -5.2522 -16.1981
ltibia 33.9894
lfoot -24.6817 27.6931
ltoes -16.0403
989
root 37.982 17.3241 5.3358 -540.424 20.4982 -181.384
lowerback -1.95285 -2.02369 3.75636
upperback -0.239832 -2.76878 -0.693884
thorax 0.635465 -1.37431 -2.87961
lowerneck -0.595861 5.86267 -2.95855
upperneck 5.52689 8.44317 -4.86972
head 1.93034 4.16051 -0.868192
rclavicle 2.83889e-014 7.7526e-015
rhumerus -32.2336 -3.83061 -90.229
rradius 27.1279
rwrist 29.507
rhand 10.3398 -21.1304
rfingers 7.12502
rthumb 35.4485 -47.5805
lclavicle 2.83889e-014 7.7526e-015
lhumerus -38.3079 16.3979 86.1568
lradius 31.8538
lwrist -9.97909
lhand -16.8071 16.8309
lfingers 7.12502
lthumb 9.42149 46.6004
rfemur -5.61937 16.7832 20.7378
rtibia 27.5394
rfoot -27.3892 -30.1537
rtoes -8.70446
lfemur -9.89694 -4.8343 -16.3941
ltibia 33.2058
lfoot -24.8434 27.5983
ltoes -16.6685
990
root 37.9627 17.3185 5.3137 -540.435 20.5217 -181.445
lowerback -2.08194 -2.01842 3.6667
upperback -0.292077 -2.76313 -0.703469
thorax 0.65829 -1.37166 -2.84322
lowerneck -0.727157 5.88854 -2.879
upperneck 5.75757 8.50606 -4.90985
head 2.03548 4.18622 -0.884186
rclavicle -1.66606e-014 1.39149e-015
rhumerus -32.1569 -4.10995 -90.0369
rradius 27.2011
rwrist 29.9781
rhand 10.5318 -21.1737
rfingers 7.12502
rthumb 35.6305 -47.5801
lclavicle -1.66606e-014 1.39149e-015
lhumerus -38.4401 16.6016 86.026
lradius 31.7219
lwrist -10.5715
lhand -16.8842 16.6747
lfingers 7.12502
lthumb 9.34705 46.4475
rfemur -5.75931 16.9967 20.6124
rtibia 27.9619
rfoot -27.8004 -30.2162
rtoes -8.58159
lfemur -9.43082 -4.63702 -16.5993
ltibia 32.4674
lfoot -25.0307 27.6589
ltoes -16.5581
991
root 37.944 17.3186 5.29225 -540.454 20.479 -181.544
lowerback -2.21322 -2.03791 3.50409
upperback -0.346272 -2.7886 -0.693153
thorax 0.682484 -1.38465 -2.74624
lowerneck -0.675521 5.85853 -2.9501
upperneck 5.75086 8.47034 -4.93318
head 2.02174 4.16932 -0.882435
rclavicle -7.58923e-014 -1.61016e-014
rhumerus -32.1312 -3.83445 -90.0744
rradius 27.3775
rwrist 29.1507
rhand 10.1758 -21.3683
rfingers 7.12502
rthumb 35.2931 -47.8554
lclavicle -7.58923e-014 -1.61016e-014
lhumerus -38.6319 16.9007 85.8992
lradius 31.6513
lwrist -11.2767
lhand -16.3613 16.6942
lfingers 7.12502
lthumb 9.85155 46.4437
rfemur -5.74815 17.2293 20.4602
rtibia 28.0816
rfoot -28.015 -30.4166
rtoes -8.55126
lfemur -9.09024 -4.47323 -16.8234
ltibia 31.8668
lfoot -25.0524 27.6468
ltoes -16.397
992
root 37.925 17.3154 5.26914 -540.545 20.4631 -181.706
lowerback -2.37867 -2.02496 3.37066
upperback -0.322046 -2.77357 -0.756923
thorax 0.804286 -1.37467 -2.74432
lowerneck -0.735744 5.82802 -2.96014
upperneck 5.75356 8.43079 -4.92232
head 2.03167 4.14808 -0.876193
rclavicle -4.78947e-014 -4.96962e-015
rhumerus -31.9971 -4.15503 -89.9301
rradius 27.4485
rwrist 29.3799
rhand 10.1369 -21.3527
rfingers 7.12502
rthumb 35.2562 -47.8486
lclavicle -4.78947e-014 -4.96962e-015
lhumerus -38.5504 16.8187 85.9154
lradius 31.3113
lwrist -11.5643
lhand -16.6568 16.5352
lfingers 7.12502
lthumb 9.56649 46.298
rfemur -5.71704 17.0521 20.181
rtibia 28.1957
rfoot -28.0692 -30.2103
rtoes -8.62264
lfemur -8.67297 -4.48344 -17.1512
ltibia 31.2795
lfoot -25.1013 27.8385
ltoes -16.3174
993
root 37.9059 17.3194 5.25165 -540.536 20.4281 -181.78
lowerback -2.52141 -2.06152 3.21276
upperback -0.360243 -2.82187 -0.723544
thorax 0.850819 -1.3985 -2.6279
lowerneck -0.653933 5.84652 -3.07455
upperneck 5.68317 8.45403 -4.93654
head 1.99012 4.16195 -0.865388
rclavicle -4.37016e-014 -1.45113e-014
rhumerus -31.8977 -4.19813 -89.8344
rradius 27.5155
rwrist 29.45
rhand 10.2338 -21.4959
rfingers 7.12502
rthumb 35.3481 -47.9699
lclavicle -4.37016e-014 -1.45113e-014
lhumerus -38.5841 16.8334 85.9836
lradius 31.2583
lwrist -11.5916
lhand -16.4885 16.6403
lfingers 7.12502
lthumb 9.72884 46.3956
rfemur -5.68276 17.6147 20.1078
rtibia 28.247
rfoot -28.3325 -30.6982
rtoes -8.55329
lfemur -8.42654 -4.45304 -17.3489
ltibia 30.763
lfoot -25.251 27.8935
ltoes -16.1197
